<svg xmlns="http://www.w3.org/2000/svg" viewBox="0 0 512 512">
  <!-- Background with gradient -->
  <defs>
    <linearGradient id="bgGradient" x1="0%" y1="0%" x2="100%" y2="100%">
      <stop offset="0%" style="stop-color:#2563eb;stop-opacity:1" />
      <stop offset="100%" style="stop-color:#1d4ed8;stop-opacity:1" />
    </linearGradient>
    <filter id="shadow">
      <feDropShadow dx="0" dy="4" stdDeviation="8" flood-opacity="0.3"/>
    </filter>
  </defs>

  <!-- Rounded square background -->
  <rect width="512" height="512" fill="url(#bgGradient)" rx="64"/>

  <!-- Outer orbit ring -->
  <circle cx="256" cy="256" r="180" fill="none" stroke="#60a5fa" stroke-width="3" opacity="0.3"/>

  <!-- Main task sphere/circle -->
  <circle cx="256" cy="256" r="140" fill="#ffffff" opacity="0.15"/>

  <!-- Checkmark badges on orbit (completed tasks) -->
  <!-- Top right -->
  <circle cx="380" cy="180" r="28" fill="#10b981" filter="url(#shadow)"/>
  <path d="M 368 180 L 375 187 L 392 170" fill="none" stroke="#ffffff" stroke-width="5" stroke-linecap="round" stroke-linejoin="round"/>

  <!-- Bottom left -->
  <circle cx="132" cy="332" r="28" fill="#10b981" filter="url(#shadow)"/>
  <path d="M 120 332 L 127 339 L 144 322" fill="none" stroke="#ffffff" stroke-width="5" stroke-linecap="round" stroke-linejoin="round"/>

  <!-- Center task list icon -->
  <g transform="translate(256, 256)">
    <!-- Task list background -->
    <rect x="-70" y="-90" width="140" height="180" rx="12" fill="#ffffff" filter="url(#shadow)"/>

    <!-- Task items -->
    <!-- Task 1 - Completed -->
    <circle cx="-45" cy="-60" r="10" fill="#10b981"/>
    <path d="M -50 -60 L -46 -56 L -40 -64" fill="none" stroke="#ffffff" stroke-width="2.5" stroke-linecap="round" stroke-linejoin="round"/>
    <rect x="-25" y="-65" width="80" height="10" rx="3" fill="#e5e7eb"/>

    <!-- Task 2 - Completed -->
    <circle cx="-45" cy="-25" r="10" fill="#10b981"/>
    <path d="M -50 -25 L -46 -21 L -40 -29" fill="none" stroke="#ffffff" stroke-width="2.5" stroke-linecap="round" stroke-linejoin="round"/>
    <rect x="-25" y="-30" width="80" height="10" rx="3" fill="#e5e7eb"/>

    <!-- Task 3 - Active (blue) -->
    <circle cx="-45" cy="10" r="10" fill="#2563eb"/>
    <rect x="-25" y="5" width="80" height="10" rx="3" fill="#dbeafe"/>

    <!-- Task 4 - Pending -->
    <circle cx="-45" cy="45" r="10" fill="none" stroke="#d1d5db" stroke-width="2"/>
    <rect x="-25" y="40" width="60" height="10" rx="3" fill="#f3f4f6"/>

    <!-- Task 5 - Pending -->
    <circle cx="-45" cy="75" r="10" fill="none" stroke="#d1d5db" stroke-width="2"/>
    <rect x="-25" y="70" width="50" height="10" rx="3" fill="#f3f4f6"/>
  </g>

  <!-- Accent dots on orbit (pending tasks) -->
  <circle cx="256" cy="76" r="12" fill="#60a5fa" opacity="0.6"/>
  <circle cx="436" cy="256" r="12" fill="#60a5fa" opacity="0.6"/>
</svg>
