<svg xmlns="http://www.w3.org/2000/svg" viewBox="0 0 512 512">
  <rect width="512" height="512" fill="#2563eb" rx="64"/>
  <path fill="#ffffff" d="M160 160h192c13.3 0 24 10.7 24 24v16c0 13.3-10.7 24-24 24H160c-13.3 0-24-10.7-24-24v-16c0-13.3 10.7-24 24-24zm0 96h192c13.3 0 24 10.7 24 24v16c0 13.3-10.7 24-24 24H160c-13.3 0-24-10.7-24-24v-16c0-13.3 10.7-24 24-24zm0 96h128c13.3 0 24 10.7 24 24v16c0 13.3-10.7 24-24 24H160c-13.3 0-24-10.7-24-24v-16c0-13.3 10.7-24 24-24z"/>
  <circle cx="110" cy="192" r="16" fill="#60a5fa"/>
  <circle cx="110" cy="288" r="16" fill="#60a5fa"/>
  <circle cx="110" cy="384" r="16" fill="#60a5fa"/>
</svg>
